<svg xmlns="http://www.w3.org/2000/svg" viewBox="0 0 5531 1000" width="331" height="60">
  <path d="M1210 1011Q1217 1019 1235.0 1006.0Q1253 993 1271.0 972.5Q1289 952 1302.5 930.0Q1316 908 1313 899Q1278 842 1240.0 775.5Q1202 709 1161 636Q1114 551 1061.0 459.0Q1008 367 950.5 275.0Q893 183 831.5 93.0Q770 3 705.5 -77.5Q641 -158 574.0 -225.5Q507 -293 439.0 -342.0Q371 -391 301.5 -418.0Q232 -445 162 -443Q83 -442 29.0 -421.0Q-25 -400 -57.0 -364.0Q-89 -328 -100.0 -281.5Q-111 -235 -102 -183Q-92 -125 -58.5 -65.0Q-25 -5 30.5 46.5Q86 98 161.0 137.0Q236 176 328 193Q355 263 407.0 350.5Q459 438 526.0 534.5Q593 631 670.5 731.5Q748 832 826 929Q823 927 816.5 924.5Q810 922 808 922Q736 917 662.0 892.0Q588 867 518.0 829.0Q448 791 386.5 743.5Q325 696 277.5 647.0Q230 598 200.5 550.0Q171 502 166 464L160 450Q153 442 131.5 446.5Q110 451 89.5 466.0Q69 481 57.5 506.5Q46 532 59 566Q92 647 147.0 714.5Q202 782 268.5 835.5Q335 889 409.0 929.0Q483 969 555.5 995.5Q628 1022 694.5 1035.5Q761 1049 813 1049Q827 1049 838.5 1049.0Q850 1049 861 1047H860Q879 1045 896.5 1032.0Q914 1019 927.0 1001.0Q940 983 947.0 963.0Q954 943 952 928Q951 918 938.5 896.0Q926 874 905.0 842.0Q884 810 856.5 770.0Q829 730 797 685Q757 628 712.5 564.5Q668 501 626.0 437.5Q584 374 547.0 313.5Q510 253 484 202Q495 200 507.0 182.5Q519 165 527.0 144.5Q535 124 535.5 106.5Q536 89 524 88Q503 92 483.0 94.0Q463 96 443 98Q443 96 442.5 94.5Q442 93 442 91Q439 72 448.5 63.0Q458 54 481 58Q532 71 588.5 112.5Q645 154 700.0 210.0Q755 266 805.5 328.0Q856 390 894 443Q926 497 962.0 558.0Q998 619 1032.5 678.5Q1067 738 1098.0 793.0Q1129 848 1153.0 890.5Q1177 933 1190.5 959.5Q1204 986 1204 990ZM419 -44Q388 -44 366.0 -33.5Q344 -23 330.5 -5.0Q317 13 311.0 38.0Q305 63 306 92Q239 80 186.0 54.0Q133 28 95.0 -6.5Q57 -41 34.0 -81.0Q11 -121 5 -161Q0 -194 8.0 -225.0Q16 -256 37.5 -280.0Q59 -304 93.0 -320.0Q127 -336 173 -339Q236 -339 297.5 -308.0Q359 -277 419.0 -223.0Q479 -169 538.0 -95.0Q597 -21 656 64Q609 28 563.0 1.5Q517 -25 472 -36H473Q457 -41 443.5 -42.5Q430 -44 419 -44Z" fill="#f472b6" transform="translate(0,750) scale(1,-1)"/>
  <path d="M187 525Q184 514 167.0 512.5Q150 511 130.0 516.0Q110 521 92.5 530.0Q75 539 72 548Q85 628 113.5 691.0Q142 754 180.5 802.0Q219 850 264.5 885.0Q310 920 357.0 945.5Q404 971 449.5 987.5Q495 1004 533 1015Q600 1035 670.5 1042.5Q741 1050 807 1050Q865 1050 925.5 1046.5Q986 1043 1039 1038Q1087 1034 1134.0 1031.0Q1181 1028 1224 1028Q1278 1028 1323.0 1034.5Q1368 1041 1406 1058Q1414 1061 1413.0 1042.0Q1412 1023 1406.0 997.5Q1400 972 1391.0 948.5Q1382 925 1374 920Q1329 903 1280.5 896.0Q1232 889 1182 889Q1126 889 1069.0 895.0Q1012 901 953 908Q889 915 825.0 921.5Q761 928 697 928Q657 928 617.5 924.5Q578 921 536 913Q481 902 427.5 876.5Q374 851 327.5 805.5Q281 760 244.5 691.0Q208 622 187 525ZM706 922Q714 930 735.0 921.0Q756 912 775.0 893.5Q794 875 805.0 849.5Q816 824 804 799Q743 732 681.0 654.0Q619 576 561.0 493.5Q503 411 450.0 327.0Q397 243 354.0 164.0Q311 85 279.5 14.0Q248 -57 232 -113Q230 -121 217.0 -111.0Q204 -101 189.5 -84.0Q175 -67 164.0 -48.5Q153 -30 154 -21Q167 39 200.0 116.0Q233 193 278.5 278.0Q324 363 379.0 452.0Q434 541 491.0 626.0Q548 711 603.5 787.0Q659 863 706 922Z" fill="#f472b6" transform="translate(917,750) scale(1,-1)"/>
  <path d="M1052 691Q1025 674 997 674Q974 674 958.0 686.5Q942 699 932.0 715.5Q922 732 919.0 748.0Q916 764 920 771Q943 782 968.0 796.5Q993 811 1014.5 828.0Q1036 845 1051.0 864.5Q1066 884 1070 905Q1072 916 1064.5 925.0Q1057 934 1034 937Q1026 939 1018.0 939.0Q1010 939 1002 939Q967 939 924.0 931.5Q881 924 836.5 909.5Q792 895 749.5 874.0Q707 853 673.0 824.5Q639 796 617.5 761.5Q596 727 593 686Q591 659 597.5 632.5Q604 606 616.0 580.5Q628 555 643.5 530.5Q659 506 676 481Q696 450 715.5 418.5Q735 387 747.5 352.5Q760 318 764.5 281.0Q769 244 759 202Q742 142 693.5 79.0Q645 16 576.5 -35.0Q508 -86 427.0 -117.0Q346 -148 265 -145Q221 -141 172.5 -123.5Q124 -106 84.5 -75.5Q45 -45 21.5 -0.5Q-2 44 6 103Q15 167 53.0 226.5Q91 286 174 342L170 341Q178 348 200.5 338.0Q223 328 246.0 311.5Q269 295 285.5 277.5Q302 260 298 251L270 235Q247 223 224.5 210.0Q202 197 182.5 180.5Q163 164 149.0 143.5Q135 123 131 97Q125 57 137.5 32.0Q150 7 174.5 -7.0Q199 -21 231.0 -26.0Q263 -31 296 -31Q353 -31 403.5 -14.5Q454 2 494.0 32.0Q534 62 560.0 105.0Q586 148 595 202Q599 229 593.5 255.0Q588 281 576.0 305.5Q564 330 547.5 353.5Q531 377 514 400Q494 428 475.0 456.5Q456 485 443.5 516.0Q431 547 427.0 580.0Q423 613 433 651Q448 706 483.5 757.0Q519 808 568.5 852.5Q618 897 678.5 933.0Q739 969 803.0 994.0Q867 1019 931.5 1031.5Q996 1044 1054 1041Q1090 1038 1112.5 1025.5Q1135 1013 1147.5 993.5Q1160 974 1162.5 948.0Q1165 922 1160 893Q1149 830 1122.5 782.5Q1096 735 1057 695Z" fill="#f472b6" transform="translate(1653,750) scale(1,-1)"/>
  <path d="M586 196Q567 170 536.0 133.0Q505 96 468.0 61.0Q431 26 392.5 1.5Q354 -23 320 -23Q299 -23 280.0 -15.5Q261 -8 249.0 8.0Q237 24 232.5 49.5Q228 75 235 110Q242 140 252.5 169.0Q263 198 278.5 230.0Q294 262 314.0 299.5Q334 337 360 384Q372 404 379.5 421.5Q387 439 389 450L341 409Q299 374 263.5 339.0Q228 304 191 262Q157 200 130.0 135.5Q103 71 86 5Q82 -6 65.0 -5.0Q48 -4 29.5 4.5Q11 13 -3.5 26.0Q-18 39 -17 52Q-8 97 6.5 139.5Q21 182 39.0 223.5Q57 265 77.5 305.5Q98 346 119 387Q143 435 166.0 480.5Q189 526 207 568Q219 574 236.5 568.5Q254 563 270.0 551.0Q286 539 298.0 521.5Q310 504 313 485Q356 521 400.0 546.0Q444 571 488 574Q502 574 515.5 561.5Q529 549 539.0 531.0Q549 513 552.0 492.0Q555 471 548 455Q522 404 497.0 359.5Q472 315 454 283Q438 255 424.5 231.5Q411 208 400.5 185.0Q390 162 381.5 138.0Q373 114 366 86Q367 88 373 92H372Q402 107 446.0 143.0Q490 179 538 241Q551 257 562.5 272.0Q574 287 585 302L604 331Q608 336 619.0 333.5Q630 331 639.5 324.0Q649 317 654.5 307.5Q660 298 654 291L655 293L587 197Z" fill="#f472b6" transform="translate(2450,750) scale(1,-1)"/>
  <path d="M529 403Q528 397 521.5 393.5Q515 390 506.0 388.5Q497 387 487.5 387.0Q478 387 471 390Q485 381 497.0 369.0Q509 357 517.0 342.5Q525 328 527.5 313.0Q530 298 524 284Q520 277 515.0 268.5Q510 260 505 251Q494 232 482.5 210.0Q471 188 461.0 167.0Q451 146 443.5 127.5Q436 109 434 96Q434 94 432.5 93.0Q431 92 430 91H437Q467 101 495.0 124.0Q523 147 549.5 176.5Q576 206 600.5 239.5Q625 273 647 304Q655 312 659.0 318.0Q663 324 667 331Q671 336 682.0 333.5Q693 331 703.0 324.0Q713 317 719.0 307.5Q725 298 719 291L690 251V250Q647 191 600.5 133.5Q554 76 497 30Q488 22 474.5 12.5Q461 3 444.5 -5.5Q428 -14 409.0 -19.5Q390 -25 370 -24Q322 -20 302.5 10.0Q283 40 288 85Q243 43 197.0 12.5Q151 -18 109 -19Q71 -15 48.5 2.5Q26 20 15.0 44.0Q4 68 2.5 95.5Q1 123 4 147Q8 169 13 183Q23 220 46.0 264.0Q69 308 101.0 352.0Q133 396 171.5 437.0Q210 478 253.0 510.0Q296 542 340.5 561.0Q385 580 429 580Q442 580 454.0 578.0Q466 576 480 572Q504 564 516.5 546.5Q529 529 533.5 505.5Q538 482 536.5 455.5Q535 429 529 403ZM412 403Q422 408 435.5 405.0Q449 402 463 394Q458 399 460 405Q461 408 460.5 412.0Q460 416 461 420Q462 430 462.0 441.0Q462 452 459.0 461.5Q456 471 449.0 477.0Q442 483 430 484Q393 485 354.0 457.5Q315 430 279.0 388.0Q243 346 213.5 298.0Q184 250 167 211Q162 200 157.0 183.5Q152 167 150 151Q148 140 148.0 130.0Q148 120 152.5 113.0Q157 106 166.0 104.0Q175 102 191 106Q206 110 229.0 129.0Q252 148 277.5 173.5Q303 199 327.5 228.0Q352 257 369 280Q384 310 396.5 338.5Q409 367 414 387Z" fill="#f472b6" transform="translate(2961,750) scale(1,-1)"/>
  <path d="M160 528Q142 522 130.5 528.0Q119 534 116.0 545.5Q113 557 119.5 571.0Q126 585 143 596Q184 622 223.5 643.0Q263 664 303 681Q378 811 416 904Q432 912 453.5 903.5Q475 895 492.5 877.0Q510 859 519.0 835.5Q528 812 519 790L490 739Q557 751 622 751Q632 751 648.0 750.5Q664 750 674 749Q676 734 670.5 716.5Q665 699 655.0 683.5Q645 668 632.5 657.0Q620 646 608 646Q598 647 587.0 647.5Q576 648 565 648Q531 648 496.0 644.0Q461 640 425 632Q411 608 396.5 585.0Q382 562 368 541L360 528Q348 509 327.0 476.0Q306 443 281.5 402.5Q257 362 231.0 317.5Q205 273 183.0 231.5Q161 190 146.0 155.0Q131 120 128 99Q126 96 126.0 94.0Q126 92 125 91H132Q161 101 189.0 123.5Q217 146 243.0 174.5Q269 203 293.0 235.5Q317 268 339 299H338Q344 308 351.0 316.5Q358 325 364 333Q368 339 378.0 336.0Q388 333 397.5 326.0Q407 319 412.5 309.5Q418 300 414 293L381 248Q340 191 292.5 132.5Q245 74 192 30Q183 22 169.0 12.5Q155 3 138.0 -5.0Q121 -13 102.0 -18.5Q83 -24 64 -24Q42 -23 28.0 -13.0Q14 -3 6.5 13.5Q-1 30 -2.5 51.5Q-4 73 0 99Q2 110 5.0 122.5Q8 135 12 145Q28 196 51.0 247.0Q74 298 101.0 348.0Q128 398 157.5 447.0Q187 496 217 543L230 563L163 529Z" fill="#f472b6" transform="translate(3535,750) scale(1,-1)"/>
  <path d="M532 257Q500 212 454.5 157.5Q409 103 351 52Q317 24 285.0 8.5Q253 -7 226.0 -14.5Q199 -22 177.5 -23.5Q156 -25 144 -25Q66 -25 31.5 20.0Q-3 65 7 143Q16 211 50.5 276.0Q85 341 148 417Q170 442 203.0 470.5Q236 499 275.0 523.0Q314 547 356.5 562.0Q399 577 438 576Q479 575 499.5 548.5Q520 522 512 479Q506 439 476 399Q464 386 451.5 383.5Q439 381 430.5 387.0Q422 393 418.5 406.0Q415 419 421 436Q433 452 435 468Q436 473 433.5 475.5Q431 478 423 476Q383 468 343.5 437.0Q304 406 270.0 366.0Q236 326 210.0 282.5Q184 239 171 206L160 166Q158 151 158.0 136.5Q158 122 161.5 109.5Q165 97 172.5 87.5Q180 78 192 75L190 76Q209 71 236.5 79.0Q264 87 296.5 107.5Q329 128 365.0 161.0Q401 194 437 239Q456 263 473.5 288.5Q491 314 507 337Q518 350 532.0 351.0Q546 352 556.0 345.0Q566 338 568.0 324.5Q570 311 557 293Z" fill="#f472b6" transform="translate(3804,750) scale(1,-1)"/>
  <path d="M586 196Q567 170 536.0 133.0Q505 96 468.0 61.0Q431 26 392.5 1.5Q354 -23 320 -23Q299 -23 280.0 -15.5Q261 -8 249.0 8.0Q237 24 232.5 49.5Q228 75 235 110Q242 140 252.5 169.0Q263 198 278.5 230.0Q294 262 314.0 299.5Q334 337 360 384Q372 404 379.5 421.5Q387 439 389 450L341 409Q302 377 268.5 344.0Q235 311 200 273Q164 207 134.0 140.5Q104 74 86 5Q82 -6 65.0 -5.0Q48 -4 29.5 4.5Q11 13 -3.5 26.0Q-18 39 -17 52Q-4 113 20.5 175.0Q45 237 77.0 299.0Q109 361 146.0 423.0Q183 485 220 546L260 610Q283 648 305.5 687.5Q328 727 348.5 765.0Q369 803 386.5 838.5Q404 874 416 904Q432 912 453.5 903.5Q475 895 492.5 877.0Q510 859 519.0 835.5Q528 812 519 790Q512 775 495.5 747.0Q479 719 458.0 684.5Q437 650 413.5 612.5Q390 575 368 541L351 515Q385 539 419.5 555.0Q454 571 488 574Q502 574 515.5 561.5Q529 549 539.0 531.0Q549 513 552.0 492.0Q555 471 548 455Q522 404 497.0 359.5Q472 315 454 283Q438 255 424.5 231.5Q411 208 400.5 185.0Q390 162 381.5 138.0Q373 114 366 86Q367 88 373 92H372Q402 107 446.0 143.0Q490 179 538 241Q551 257 562.5 272.0Q574 287 585 302L604 331Q608 336 619.0 333.5Q630 331 639.5 324.0Q649 317 654.5 307.5Q660 298 654 291L655 293L587 197Z" fill="#f472b6" transform="translate(4217,750) scale(1,-1)"/>
  <path d="M475 394Q415 304 333.5 244.0Q252 184 159 155Q156 128 162.5 104.0Q169 80 192 75L190 76Q209 71 236.5 79.0Q264 87 296.5 107.5Q329 128 365.0 161.0Q401 194 437 239Q456 263 473.5 288.5Q491 314 507 337Q518 350 531.5 351.0Q545 352 554.5 344.5Q564 337 566.5 323.5Q569 310 557 293L532 257Q500 212 454.5 157.5Q409 103 351 52Q317 24 285.0 8.5Q253 -7 226.0 -14.5Q199 -22 177.5 -23.5Q156 -25 144 -25Q66 -25 31.5 20.0Q-3 65 7 143Q16 211 50.5 276.0Q85 341 148 417Q170 442 203.0 470.5Q236 499 275.0 523.0Q314 547 356.5 562.0Q399 577 438 576Q479 575 500.0 548.5Q521 522 513 477Q510 457 500.5 436.5Q491 416 474 393ZM423 476Q387 469 352.0 444.0Q317 419 286.0 385.0Q255 351 229.0 312.5Q203 274 186 240Q257 269 318.0 318.5Q379 368 422 437V436Q428 444 430.5 452.0Q433 460 435 466Q437 480 423 476Z" fill="#f472b6" transform="translate(4728,750) scale(1,-1)"/>
  <path d="M449 175Q421 141 387.0 105.5Q353 70 315.0 41.0Q277 12 236.0 -6.0Q195 -24 155 -22Q132 -21 116.0 -11.0Q100 -1 91.5 15.5Q83 32 81.0 53.0Q79 74 83 97Q90 130 103.0 159.0Q116 188 133.5 214.0Q151 240 171.0 265.0Q191 290 213 316L237 344V343L266 377Q274 388 287.5 397.0Q301 406 330 414Q316 411 307.0 409.5Q298 408 291 406Q278 403 265.0 400.0Q252 397 235 398H225Q198 364 174.0 331.5Q150 299 129 270V271Q125 265 115.0 268.0Q105 271 96.0 278.5Q87 286 81.5 295.5Q76 305 82 312V311Q111 349 131.0 377.5Q151 406 167 428Q159 445 164 468Q169 499 186.0 523.0Q203 547 226 579Q235 592 245.5 608.0Q256 624 267 647Q281 639 295.0 630.5Q309 622 319.5 610.5Q330 599 335.0 584.0Q340 569 337 550Q335 541 332.0 530.5Q329 520 321 506L279 461Q274 455 284.0 459.5Q294 464 313.0 475.0Q332 486 356.0 501.0Q380 516 403.0 531.0Q426 546 443.5 559.0Q461 572 468 579Q474 579 483.0 573.0Q492 567 500.5 559.5Q509 552 515.5 545.5Q522 539 523 537Q531 520 523.0 496.5Q515 473 496.5 445.0Q478 417 451.5 385.5Q425 354 396 321Q379 303 363.0 285.0Q347 267 331 248Q319 234 304.0 216.0Q289 198 275.0 179.5Q261 161 251.0 143.0Q241 125 239 113Q237 107 249 107Q260 106 278.0 114.5Q296 123 317.0 138.5Q338 154 360.0 175.0Q382 196 401 221H400Q426 253 449.0 284.0Q472 315 486 337Q491 342 501.0 338.5Q511 335 520.0 327.0Q529 319 534.0 308.5Q539 298 533 291L534 293L498 243L451 176Z" fill="#f472b6" transform="translate(5141,750) scale(1,-1)"/>
</svg>
